# xmcd
# 
# Track frame offsets:
#     150
#     15682
#     25992
#     37407
#     47817
#     70305
#     82597
#     100072
#     112417
#     126245
#     135272
# 
# Disc length: 2008
# 
# Revision: 7
# Processed by: cddbd v1.5.2PL0 Copyright (c) Steve Scherf et al.
# Submitted via: fre:ac v1.0.27
# 
DISCID=9407d60b
DTITLE=The J. Geils Band - The J. Geils Band
DYEAR=1970
DGENRE=Rock
TTITLE0=Wait
TTITLE1=Ice Breaker (For the Big "M")
TTITLE2=Cruisin' for a Love
TTITLE3=Hard Drivin' Man
TTITLE4=Serves You Right to Suffer
TTITLE5=Homework
TTITLE6=First I Look at the Purse
TTITLE7=What's Your Hurry
TTITLE8=On Borrowed Time
TTITLE9=Pack Fair and Square
TTITLE10=Sno-Cone
EXTD=
EXTT0=
EXTT1=
EXTT2=
EXTT3=
EXTT4=
EXTT5=
EXTT6=
EXTT7=
EXTT8=
EXTT9=
EXTT10=
PLAYORDER=
